<svg width="134" height="137" xmlns="http://www.w3.org/2000/svg" xmlns:xlink="http://www.w3.org/1999/xlink" xml:space="preserve" overflow="hidden"><g transform="translate(-1172 -740)"><g><g><g><g><path d="M59.1892 121.077C59.1892 123.77 61.9018 125.955 65.2476 125.955 67.8757 126.129 70.2996 124.537 71.1827 122.055 71.3 121.729 71.3758 121.39 71.4085 121.045 72.1608 111.784 73.5047 103.374 81.856 94.6156 83.1419 95.1348 84.4598 95.5706 85.8016 95.9207 86.4517 99.9523 88.3741 103.67 91.2879 106.532 92.4336 107.546 94.1848 107.44 95.1992 106.294 96.1946 105.17 96.1133 103.457 95.016 102.432 93.5289 100.915 92.4048 99.0814 91.7284 97.0678 94.0658 97.3715 96.4204 97.5242 98.7774 97.525 100.308 97.525 101.548 96.2845 101.548 94.7542 101.548 93.2239 100.308 91.9833 98.7774 91.9833 94.1005 92.0273 89.4469 91.3204 84.9939 89.89 95.246 82.8798 102.531 82.424 115.035 83.1499 116.564 83.2235 117.863 82.0441 117.936 80.5156 118.009 79.0089 116.863 77.7212 115.358 77.618L113.596 77.5141C106.872 77.1151 101.338 76.7992 95.9262 77.7621 95.9728 76.6634 96.0876 75.5687 96.2698 74.4842 96.7946 70.898 99.5391 68.0411 103.101 67.3728 103.529 67.298 103.941 67.2052 104.362 67.1207 109.049 69.4085 114.207 70.5672 119.423 70.5039 122.271 70.61 125.108 70.0922 127.735 68.9868 129.099 68.2913 129.64 66.6226 128.944 65.2594 128.264 63.9256 126.647 63.3738 125.293 64.0132 122.911 65.1825 117.95 65.2005 113.563 64.4288 116.156 63.4083 118.62 62.0869 120.905 60.4914 122.154 59.6016 122.444 57.8683 121.554 56.6199 120.665 55.3715 118.931 55.081 117.683 55.9708 112.996 59.0596 107.691 61.0868 102.138 61.9101 96.2425 62.9888 91.6844 67.6962 90.7961 73.6238 90.4504 75.4686 90.3294 77.3484 90.4358 79.2223 88.3591 79.984 86.3555 80.9317 84.4495 82.0541 83.9299 81.245 83.3619 80.4151 82.7745 79.5603 78.8953 73.9203 74.063 66.9004 77.8909 57.9478 80.6617 51.4488 87.8659 45.5802 95.4649 43.5533 96.2504 43.5894 97.9268 43.6531 100.069 43.6531 104.967 43.6531 112.276 43.322 116.832 41.5847 118.262 41.0376 118.977 39.4355 118.43 38.0061 117.882 36.5768 116.28 35.8616 114.851 36.4087 110.997 37.8801 103.804 38.1599 98.9617 38.1087 100.114 34.7311 101.444 31.4167 102.946 28.1794 103.628 26.8095 103.071 25.146 101.701 24.464 100.331 23.7821 98.6673 24.3396 97.9852 25.7095 97.9762 25.7277 97.9674 25.7462 97.9587 25.7646 96.0496 29.9125 94.3841 34.1684 92.9712 38.5104 89.8657 39.487 86.9173 40.9059 84.2167 42.7235 83.3314 41.0509 82.7436 39.2372 82.4794 37.3633 82.3325 35.5456 83.3106 32.9868 84.2513 30.511 84.8899 28.9387 85.4313 27.3286 85.8723 25.6898 86.8421 21.7344 85.8085 18.3983 84.1031 12.8747 83.718 11.6278 83.2899 10.2424 82.8327 8.68656 82.4015 7.21826 80.8616 6.37747 79.3934 6.80863 77.9251 7.23979 77.0843 8.77962 77.5154 10.2479 77.9809 11.8328 78.416 13.2404 78.808 14.5109 79.5866 17.0309 80.1311 18.8444 80.4317 20.3227 77.5077 19.7549 74.7215 18.6258 72.2273 16.9977 70.9056 16.2263 69.2089 16.6724 68.4375 17.9941 67.6797 19.2925 68.0956 20.9583 69.3747 21.7483 72.609 23.8418 76.2407 25.2444 80.0424 25.8685 79.7654 26.7164 79.4245 27.6072 79.0727 28.5368 77.9089 31.5847 76.705 34.7463 76.9557 37.8191 77.3414 40.7795 78.2989 43.6365 79.7751 46.2313 76.8099 48.8966 74.4315 52.1497 72.7912 55.7838 71.3106 59.1304 70.7047 62.7983 71.0303 66.4432 65.3752 63.4064 60.1059 59.7 55.3363 55.4042 56.792 50.6445 57.67 45.7269 57.952 40.7576 57.9894 40.7479 58.0268 40.7576 58.0628 40.7396 60.8953 39.5891 63.5025 37.9475 65.7643 35.8906 66.8941 34.8585 66.9733 33.1058 65.9411 31.9761 64.9557 30.8974 63.3022 30.7693 62.1623 31.6831 60.8954 32.7776 59.5358 33.7598 58.0988 34.6188 58.0684 33.2777 57.9977 32.0073 57.8799 30.856 57.7268 29.3334 56.3684 28.223 54.8459 28.3761 53.3233 28.5292 52.2129 29.8876 52.366 31.4102 52.8811 38.0161 52.3566 44.662 50.8115 51.1052 45.2671 45.5686 40.5137 39.293 36.6858 32.4562 35.973 31.102 34.2974 30.5821 32.9433 31.2949 31.5892 32.0077 31.0692 33.6834 31.782 35.0375 31.7941 35.0602 31.8063 35.0828 31.8189 35.1051 33.038 37.3453 34.4068 39.562 35.8864 41.7412 34.0459 41.2344 32.2815 40.4838 30.6399 39.5093 29.3754 38.6473 27.6517 38.9736 26.7897 40.238 25.9277 41.5024 26.2539 43.2262 27.5184 44.0882 27.5476 44.1082 27.5773 44.1275 27.6072 44.1463 31.6969 46.8215 38.4384 48.1848 41.0762 48.6364 49.6201 58.9772 60.5566 67.8078 71.3393 72.7607 72.577 77.88 74.5047 82.8072 77.0693 87.4073 76.6537 87.7828 76.227 88.1554 75.8225 88.5461 72.385 91.1096 69.3695 94.1947 66.8851 97.6899 61.6926 97.029 53.7237 93.3882 47.4478 89.8484 47.5227 89.7311 47.5889 89.6083 47.6459 89.4813 48.324 87.3052 48.7539 85.0596 48.9274 82.787 53.2763 81.7744 57.3102 79.7102 60.6757 76.7756 61.8303 75.7713 61.9521 74.0211 60.9478 72.8665 59.9435 71.7119 58.1933 71.5902 57.0387 72.5944 56.9872 72.6392 56.9374 72.6859 56.8894 72.7344 54.6051 74.7295 51.9086 76.196 48.9925 77.0292 48.8226 74.5135 48.3889 72.0228 47.6985 69.5978 47.2776 68.1265 45.7437 67.2747 44.2724 67.6956 42.8011 68.1165 41.9493 69.6504 42.3702 71.1217 43.8283 76.2842 43.9166 81.7375 42.6265 86.9446 41.4483 86.1936 40.3141 85.3757 39.2295 84.4952L39.2045 84.4744C34.1256 80.1574 31.4102 74.7543 28.5368 69.0325 25.5679 63.1251 22.4964 57.0168 16.6763 52.4075 15.4761 51.458 13.7335 51.6611 12.7839 52.8613 11.8344 54.0615 12.0375 55.804 13.2377 56.7536 16.2018 59.2134 18.661 62.2246 20.4792 65.6203 16.1096 65.5714 11.8046 64.5581 7.87194 62.6527 6.51534 61.9442 4.84123 62.4695 4.1327 63.8261 3.42418 65.1827 3.94955 66.8569 5.30615 67.5654 7.29094 68.5727 9.37891 69.3624 11.5336 69.9206 10.4529 70.6601 9.24339 71.191 7.96753 71.4861 6.4708 71.8049 5.51583 73.2765 5.83456 74.7733 6.09966 76.0182 7.17888 76.9225 8.45104 76.9654 8.61924 76.9653 8.7871 76.9499 8.95256 76.9197 13.2058 76.1425 17.1334 72.7981 18.9096 71.0913 19.3792 71.1148 19.8489 71.137 20.295 71.137 21.2923 71.142 22.2887 71.0748 23.2764 70.9361 23.3734 71.1273 23.469 71.3143 23.5659 71.5069 25.0191 74.5224 26.6331 77.4577 28.401 80.3001 26.2187 81.7684 23.5737 82.3855 20.9669 82.0347 19.4652 81.7386 18.0079 82.7157 17.7119 84.2174 17.4158 85.719 18.3929 87.1764 19.8946 87.4724 20.7416 87.6384 21.6028 87.7214 22.4659 87.7204 25.7603 87.6319 28.9614 86.6079 31.6956 84.7681 32.8921 86.1772 34.2005 87.4875 35.608 88.6861 35.753 88.8089 35.9118 88.9386 36.0846 89.0754 40.184 92.4295 53.2 101.717 62.8619 104.948 60.8281 109.86 59.6028 115.069 59.2335 120.372Z" fill="#FBB3A5" fill-rule="nonzero" fill-opacity="1" transform="matrix(1 0 0 1.03008 1173 740)"/></g></g></g></g></g></svg>